<svg version="1" xmlns="http://www.w3.org/2000/svg" width="533.333" height="533.333" viewBox="0 0 400.000000 400.000000"><path d="M103.5 148.2c-17.5 30.4-32 55.6-32.1 55.9-.5 1 31.1 55.4 32.1 55.3.7-.2 35.8-60.5 93.6-161.2l3-5.2h-64.8l-31.8 55.2zM175.3 188.8c-30.3 52.6-55.5 96.4-55.8 97.3-.4 1 2.6 7.1 7.6 15.7l8.1 14.2h130.3l31.5-54.6c17.3-30 31.5-55.6 31.5-56.8 0-1.3-14.2-26.9-31.5-56.9L265.5 93h-35l-55.2 95.8zM33.5 186.9c-8.1 2-12.5 7.9-12.5 16.7 0 9.2 5 15.4 13.8 17 10.1 1.9 20.2-6.5 20.2-17 0-11.1-10.6-19.3-21.5-16.7zM357.1 187c-9.7 2.3-15.3 12.7-12.2 22.3 1.6 4.6 8 10.4 12.5 11.3 7.3 1.3 15-2 18.6-7.8 2.8-4.6 2.7-13.9-.1-18.4-3.7-6-11.5-9.1-18.8-7.4z"/></svg>